# Blender v2.80 (sub 75) OBJ File: 'CustomHouse_Block.blend'
# www.blender.org
mtllib CustomHouse_Block.mtl
o Cube
v 1.000000 1.000000 -1.000000
v 1.000000 -1.000000 -1.000000
v 1.000000 1.000000 1.000000
v 1.000000 -1.000000 1.000000
v -1.000000 1.000000 -1.000000
v -1.000000 -1.000000 -1.000000
v -1.000000 1.000000 1.000000
v -1.000000 -1.000000 1.000000
vt 0.645350 0.837721
vt 0.745300 0.837721
vt 0.745300 0.937672
vt 0.645350 0.937672
vt 0.497597 0.061977
vt 0.499884 0.559426
vt 0.002434 0.561713
vt 0.000147 0.064263
vt 0.465522 0.813750
vt 0.584084 0.813750
vt 0.584084 0.932313
vt 0.465522 0.932313
vt 0.111634 0.818840
vt 0.233798 0.818840
vt 0.233798 0.941003
vt 0.111634 0.941003
vt 1.000858 0.062713
vt 0.999787 0.563942
vt 0.498772 0.563303
vt 0.499842 0.062073
vt 0.283682 0.803564
vt 0.428818 0.803564
vt 0.428818 0.948700
vt 0.283682 0.948700
vn 0.0000 1.0000 0.0000
vn 0.0000 0.0000 1.0000
vn -1.0000 0.0000 0.0000
vn 0.0000 -1.0000 0.0000
vn 1.0000 0.0000 0.0000
vn 0.0000 0.0000 -1.0000
usemtl Material
s off
f 1/1/1 5/2/1 7/3/1 3/4/1
f 4/5/2 3/6/2 7/7/2 8/8/2
f 8/9/3 7/10/3 5/11/3 6/12/3
f 6/13/4 2/14/4 4/15/4 8/16/4
f 2/17/5 1/18/5 3/19/5 4/20/5
f 6/21/6 5/22/6 1/23/6 2/24/6
